<mxfile host="app.diagrams.net" agent="Mozilla/5.0 (Windows NT 10.0; Win64; x64) AppleWebKit/537.36 (KHTML, like Gecko) Chrome/130.0.0.0 Safari/537.36" version="24.8.4">
  <diagram id="C5RBs43oDa-KdzZeNtuy" name="Page-1">
    <mxGraphModel dx="1034" dy="420" grid="1" gridSize="9" guides="1" tooltips="1" connect="1" arrows="1" fold="1" page="1" pageScale="1" pageWidth="827" pageHeight="1169" math="0" shadow="0">
      <root>
        <mxCell id="WIyWlLk6GJQsqaUBKTNV-0" />
        <mxCell id="WIyWlLk6GJQsqaUBKTNV-1" parent="WIyWlLk6GJQsqaUBKTNV-0" />
        <mxCell id="qxS-RT5oGUpogAdSoz3j-39" style="edgeStyle=orthogonalEdgeStyle;rounded=0;orthogonalLoop=1;jettySize=auto;html=1;exitX=0.5;exitY=1;exitDx=0;exitDy=0;entryX=0.5;entryY=0;entryDx=0;entryDy=0;" edge="1" parent="WIyWlLk6GJQsqaUBKTNV-1" source="WIyWlLk6GJQsqaUBKTNV-3" target="qxS-RT5oGUpogAdSoz3j-16">
          <mxGeometry relative="1" as="geometry" />
        </mxCell>
        <mxCell id="WIyWlLk6GJQsqaUBKTNV-3" value="User creates P1 Incident with the help of SNOW" style="rounded=1;whiteSpace=wrap;html=1;fontSize=12;glass=0;strokeWidth=1;shadow=0;" parent="WIyWlLk6GJQsqaUBKTNV-1" vertex="1">
          <mxGeometry x="153" y="78" width="162" height="48" as="geometry" />
        </mxCell>
        <mxCell id="qxS-RT5oGUpogAdSoz3j-1" value="&lt;h1 style=&quot;margin-top: 0px;&quot;&gt;&lt;font style=&quot;font-size: 14px;&quot;&gt;User Created Incident&lt;/font&gt;&lt;/h1&gt;" style="text;html=1;whiteSpace=wrap;overflow=hidden;rounded=0;" vertex="1" parent="WIyWlLk6GJQsqaUBKTNV-1">
          <mxGeometry x="153" y="18" width="153" height="36" as="geometry" />
        </mxCell>
        <mxCell id="qxS-RT5oGUpogAdSoz3j-38" style="edgeStyle=orthogonalEdgeStyle;rounded=0;orthogonalLoop=1;jettySize=auto;html=1;exitX=0.5;exitY=1;exitDx=0;exitDy=0;entryX=0.5;entryY=0;entryDx=0;entryDy=0;" edge="1" parent="WIyWlLk6GJQsqaUBKTNV-1" source="qxS-RT5oGUpogAdSoz3j-16" target="qxS-RT5oGUpogAdSoz3j-35">
          <mxGeometry relative="1" as="geometry" />
        </mxCell>
        <mxCell id="qxS-RT5oGUpogAdSoz3j-16" value="COT Owns the P1 incident within the response SLA and starts Triaging the issue based on the Provided runbook" style="rounded=1;whiteSpace=wrap;html=1;" vertex="1" parent="WIyWlLk6GJQsqaUBKTNV-1">
          <mxGeometry x="126" y="144" width="243" height="63" as="geometry" />
        </mxCell>
        <mxCell id="qxS-RT5oGUpogAdSoz3j-40" style="edgeStyle=orthogonalEdgeStyle;rounded=0;orthogonalLoop=1;jettySize=auto;html=1;exitX=0.5;exitY=1;exitDx=0;exitDy=0;entryX=0.5;entryY=0;entryDx=0;entryDy=0;" edge="1" parent="WIyWlLk6GJQsqaUBKTNV-1" source="qxS-RT5oGUpogAdSoz3j-35" target="qxS-RT5oGUpogAdSoz3j-36">
          <mxGeometry relative="1" as="geometry" />
        </mxCell>
        <mxCell id="qxS-RT5oGUpogAdSoz3j-35" value="Once the quick initial analysis is completed, COT will reach out to the Engg Team/CSO over the call&amp;nbsp; as per the escalation matrix provided in runbook to sort out the issue" style="rounded=1;whiteSpace=wrap;html=1;" vertex="1" parent="WIyWlLk6GJQsqaUBKTNV-1">
          <mxGeometry x="126.5" y="225" width="242.5" height="72" as="geometry" />
        </mxCell>
        <mxCell id="qxS-RT5oGUpogAdSoz3j-36" value="Engineering team/CSO will pitch in immediately to triage the issue. In the meantime, COT will keep updating the status to user over the email or SNOW incident notes. COT will intiate Bridge call if required." style="rounded=1;whiteSpace=wrap;html=1;" vertex="1" parent="WIyWlLk6GJQsqaUBKTNV-1">
          <mxGeometry x="126" y="315" width="243" height="81" as="geometry" />
        </mxCell>
        <mxCell id="qxS-RT5oGUpogAdSoz3j-41" value="&amp;nbsp;We Ensure is it global outage" style="strokeWidth=2;html=1;shape=mxgraph.flowchart.decision;whiteSpace=wrap;" vertex="1" parent="WIyWlLk6GJQsqaUBKTNV-1">
          <mxGeometry x="166" y="414" width="158" height="99" as="geometry" />
        </mxCell>
        <mxCell id="qxS-RT5oGUpogAdSoz3j-42" value="COT will Update the investigation progress only to the affected user/Customer over Email/SNOW incident notes" style="rounded=1;whiteSpace=wrap;html=1;" vertex="1" parent="WIyWlLk6GJQsqaUBKTNV-1">
          <mxGeometry x="360" y="414" width="152.5" height="81" as="geometry" />
        </mxCell>
        <mxCell id="qxS-RT5oGUpogAdSoz3j-45" style="edgeStyle=orthogonalEdgeStyle;rounded=0;orthogonalLoop=1;jettySize=auto;html=1;exitX=0.5;exitY=1;exitDx=0;exitDy=0;entryX=0.5;entryY=0;entryDx=0;entryDy=0;entryPerimeter=0;" edge="1" parent="WIyWlLk6GJQsqaUBKTNV-1" source="qxS-RT5oGUpogAdSoz3j-36" target="qxS-RT5oGUpogAdSoz3j-41">
          <mxGeometry relative="1" as="geometry" />
        </mxCell>
        <mxCell id="qxS-RT5oGUpogAdSoz3j-47" value="Yes" style="rounded=0;html=1;jettySize=auto;orthogonalLoop=1;fontSize=11;endArrow=block;endFill=0;endSize=8;strokeWidth=1;shadow=0;labelBackgroundColor=none;edgeStyle=orthogonalEdgeStyle;" edge="1" parent="WIyWlLk6GJQsqaUBKTNV-1">
          <mxGeometry y="20" relative="1" as="geometry">
            <mxPoint as="offset" />
            <mxPoint x="244.5" y="513" as="sourcePoint" />
            <mxPoint x="245" y="539.5" as="targetPoint" />
          </mxGeometry>
        </mxCell>
        <mxCell id="qxS-RT5oGUpogAdSoz3j-51" style="edgeStyle=orthogonalEdgeStyle;rounded=0;orthogonalLoop=1;jettySize=auto;html=1;exitX=0.5;exitY=1;exitDx=0;exitDy=0;entryX=0.5;entryY=0;entryDx=0;entryDy=0;" edge="1" parent="WIyWlLk6GJQsqaUBKTNV-1" source="qxS-RT5oGUpogAdSoz3j-48" target="qxS-RT5oGUpogAdSoz3j-50">
          <mxGeometry relative="1" as="geometry" />
        </mxCell>
        <mxCell id="qxS-RT5oGUpogAdSoz3j-48" value="After confirmation from Engg team, COT will Update the Status page with the service disruption details/incident. Updates the progress every 30 minutes until issue is fixed." style="rounded=1;whiteSpace=wrap;html=1;" vertex="1" parent="WIyWlLk6GJQsqaUBKTNV-1">
          <mxGeometry x="126" y="540" width="234" height="81" as="geometry" />
        </mxCell>
        <mxCell id="qxS-RT5oGUpogAdSoz3j-49" value="No" style="edgeStyle=orthogonalEdgeStyle;rounded=0;html=1;jettySize=auto;orthogonalLoop=1;fontSize=11;endArrow=block;endFill=0;endSize=8;strokeWidth=1;shadow=0;labelBackgroundColor=none;" edge="1" parent="WIyWlLk6GJQsqaUBKTNV-1">
          <mxGeometry x="-0.28" y="13" relative="1" as="geometry">
            <mxPoint as="offset" />
            <mxPoint x="324" y="463" as="sourcePoint" />
            <mxPoint x="360" y="463" as="targetPoint" />
          </mxGeometry>
        </mxCell>
        <mxCell id="qxS-RT5oGUpogAdSoz3j-50" value="Once the issue is fixed and confirmed with users, COT will mark the services as operational and puts on watching status for 24 hrs on the status page and prepares draft RCA to roll out. Once RCA is prepared, service disruption statement will be provided to customer/User.&lt;div&gt;&lt;br&gt;&lt;/div&gt;" style="rounded=1;whiteSpace=wrap;html=1;" vertex="1" parent="WIyWlLk6GJQsqaUBKTNV-1">
          <mxGeometry x="128" y="648" width="234" height="117" as="geometry" />
        </mxCell>
      </root>
    </mxGraphModel>
  </diagram>
</mxfile>
